<?xml version="1.0" standalone="no"?>
<!DOCTYPE svg PUBLIC "-//W3C//DTD SVG 20010904//EN"
 "http://www.w3.org/TR/2001/REC-SVG-20010904/DTD/svg10.dtd">
<svg version="1.0" xmlns="http://www.w3.org/2000/svg"
 width="1000.000000pt" height="884.000000pt" viewBox="0 0 1000.000000 884.000000"
 preserveAspectRatio="xMidYMid meet">
<metadata>
Created by potrace 1.16, written by Peter Selinger 2001-2019
</metadata>
<g transform="translate(0.000000,884.000000) scale(0.100000,-0.100000)"
fill="#000000" stroke="none">
<path d="M801 8825 c-402 -88 -703 -390 -785 -787 -14 -70 -16 -426 -16 -3615
0 -3437 1 -3541 19 -3630 66 -319 299 -595 606 -718 37 -14 104 -36 149 -48
l81 -22 4140 0 c4007 0 4143 1 4220 19 373 87 657 359 757 726 l23 85 0 3590
c0 3454 -1 3592 -18 3655 -94 333 -316 584 -615 696 -187 70 202 64 -4369 63
-3478 0 -4138 -3 -4192 -14z m5804 -1455 c439 -50 789 -368 876 -796 19 -90
19 -153 17 -1736 l-3 -1643 -28 -88 c-116 -372 -364 -611 -734 -709 l-88 -23
-1640 0 c-1566 0 -1644 1 -1720 19 -368 86 -636 339 -752 711 l-28 90 -3 1643
c-2 1577 -2 1646 17 1735 86 424 442 751 868 796 117 12 3109 13 3218 1z
m-3021 -5176 c14 -13 16 -54 16 -292 0 -309 -3 -323 -71 -391 -50 -49 -103
-71 -177 -71 -77 0 -122 21 -179 83 -42 45 -63 96 -63 153 0 37 16 54 51 54
32 0 47 -16 55 -61 16 -85 90 -139 168 -125 44 8 92 56 106 104 5 21 10 146
10 288 0 181 3 253 12 262 17 17 54 15 72 -4z m510 -220 c9 -8 16 -19 16 -23
0 -5 21 2 47 15 35 18 63 24 115 24 114 0 197 -50 245 -148 26 -54 28 -66 32
-213 3 -135 1 -158 -14 -172 -21 -21 -59 -22 -79 -1 -13 13 -16 42 -16 162 0
133 -2 151 -23 187 -46 83 -154 106 -236 52 -61 -41 -71 -73 -71 -240 0 -158
-6 -177 -55 -177 -50 0 -55 25 -55 272 0 251 5 278 51 278 15 0 35 -7 43 -16z
m883 -3 c49 -23 114 -86 139 -139 16 -30 20 -66 22 -200 4 -180 0 -195 -51
-190 -24 2 -47 23 -52 45 -1 1 -23 -9 -50 -22 -62 -32 -168 -34 -231 -6 -130
59 -199 201 -160 333 20 70 83 143 151 174 65 31 170 33 232 5z m655 -5 c100
-48 164 -161 155 -271 -5 -71 -25 -115 -76 -168 -53 -56 -104 -79 -187 -85
-62 -4 -80 -1 -128 21 l-56 26 0 -118 c0 -106 -2 -120 -20 -136 -16 -15 -26
-17 -48 -9 l-27 9 -3 273 c-2 259 -1 275 19 322 24 56 81 113 143 141 53 25
173 22 228 -5z m603 0 c93 -43 165 -153 165 -251 0 -92 -60 -191 -148 -243
-42 -24 -57 -27 -137 -27 -77 0 -95 3 -127 23 l-38 24 0 -116 c0 -104 -2 -118
-21 -137 -26 -26 -60 -21 -77 11 -18 35 -11 508 8 563 20 55 82 121 142 151
70 35 161 36 233 2z m531 5 c50 -23 111 -82 120 -117 8 -31 -19 -64 -52 -64
-12 0 -33 13 -46 29 -13 15 -36 36 -51 45 -34 23 -108 23 -145 1 -33 -20 -57
-54 -45 -64 4 -4 69 -22 143 -40 74 -18 142 -38 150 -44 74 -57 64 -155 -24
-222 -49 -37 -100 -54 -166 -54 -68 -1 -124 24 -174 75 -45 47 -55 78 -31 104
28 30 53 24 106 -25 44 -41 53 -45 99 -45 28 0 64 7 80 15 28 14 57 52 47 61
-2 2 -59 18 -125 34 -156 38 -187 51 -206 89 -33 63 -11 132 61 187 73 56 181
70 259 35z m-2809 -190 c12 -25 3 -57 -21 -73 -6 -4 -64 -8 -128 -8 -105 0
-120 2 -138 20 -24 24 -25 38 -4 68 15 22 20 22 147 20 128 -3 132 -4 144 -27z"/>
<path d="M6338 6487 l-77 -172 60 -3 61 -3 -7 -107 c-39 -656 -185 -1215 -431
-1657 -113 -203 -270 -397 -399 -492 -64 -47 -65 -49 -65 -95 0 -27 4 -48 8
-48 21 0 115 73 201 155 428 412 715 1207 767 2123 l7 122 48 0 c27 0 49 4 49
8 0 8 -123 301 -137 327 -6 10 -31 -37 -85 -158z"/>
<path d="M3432 4698 l3 -1613 260 0 260 0 3 1470 2 1470 196 -370 c175 -330
606 -1141 1142 -2149 102 -192 191 -366 198 -385 l12 -36 96 -3 96 -3 0 467 0
467 -32 -27 c-18 -14 -63 -45 -100 -68 l-67 -43 -1 -225 0 -225 -88 165 c-49
91 -151 282 -227 425 -76 143 -157 296 -180 340 -64 118 -772 1453 -915 1723
l-123 232 -268 0 -269 0 2 -1612z"/>
<path d="M6482 6059 c-21 -300 -71 -596 -147 -873 l-35 -128 2 -987 3 -986
100 0 100 0 3 1573 c1 864 -2 1572 -6 1572 -5 0 -14 -77 -20 -171z"/>
<path d="M6224 4840 c-7 -14 -24 -54 -39 -90 -15 -36 -56 -122 -91 -193 l-64
-127 2 -673 3 -672 98 -3 c72 -2 99 1 102 10 3 7 4 409 3 893 -2 665 -6 874
-14 855z"/>
<path d="M5920 4268 c-23 -33 -67 -90 -96 -124 l-54 -63 0 -501 0 -500 100 0
100 0 0 625 c0 344 -1 625 -3 625 -2 0 -23 -28 -47 -62z"/>
<path d="M4776 1867 c-53 -33 -86 -90 -86 -150 0 -167 213 -239 310 -105 59
81 44 184 -35 244 -53 40 -134 45 -189 11z"/>
<path d="M5465 1883 c-62 -16 -124 -101 -125 -171 -1 -132 177 -217 275 -131
48 42 65 78 65 134 0 61 -25 111 -69 141 -37 24 -108 37 -146 27z"/>
<path d="M6064 1879 c-34 -10 -89 -66 -105 -106 -35 -93 24 -200 124 -223 107
-24 207 56 207 165 0 53 -16 88 -57 128 -46 43 -104 55 -169 36z"/>
</g>
</svg>
